<svg xmlns="http://www.w3.org/2000/svg" viewBox="0 0 123.2 32"><path fill="#fff" d="M106.5 24.3V4.6h2.3v20.2c0 1.5-1.2 2.8-2.7 2.8h-1.7c-1.5 0-2.8-1.2-2.8-2.8V4.6h2.3v19.7c0 .7.5 1.2 1.1 1.2h.4c.5 0 1.1-.5 1.1-1.2zM76.9 4.4c1.5.1 2.8 1.4 2.8 2.9v17.5c0 1.5-1.2 2.8-2.8 2.9h-1.8c-1.6 0-2.8-1.3-2.9-2.9V7.3c0-1.6 1.3-2.9 2.9-2.9h1.8zm.4 19.9V7.7c0-.7-.5-1.3-1.2-1.3h-.3c-.7 0-1.2.6-1.2 1.3v16.6c0 .7.5 1.2 1.2 1.3h.4c.6 0 1.1-.6 1.1-1.3zm14-19.7c1.6 0 2.8 1.3 2.8 2.9v17.1c0 1.6-1.3 2.8-2.8 2.9h-4.4V4.6h4.4zm.6 19.3V8.1c0-.6-.4-1.1-1-1.2h-1.7v18.2h1.5c.6.1 1.1-.4 1.2-1v-.2zM65.7 4.6 62.5 16l3.3 11.4h-2.3l-2.1-7.3-2.1 7.3H57L60.1 16 56.9 4.6h2.3l2.1 7.3 2.1-7.3h2.3zm-15 20.5-.6 1.9c-.1.2-.3.4-.6.4h-5.9V4.6h7.1l-.6 1.9c-.1.2-.3.4-.6.4h-3.6v7.3h3.8l-.6 1.9c-.1.3-.3.4-.6.4h-2.7V25h4.9v.1zM119 12.9l2.7 5.2c.6 1.1 1 2.4 1 3.6v2.9c0 1.6-1.3 2.9-2.9 2.9h-1.5c-1.5-.1-2.8-1.4-2.8-2.9v-3.3c0-.3.2-.5.4-.6l1.9-.5v4c0 .7.5 1.2 1.2 1.2s1.2-.5 1.2-1.2v-2.6c-.1-1.1-.4-2.1-1-3.1l-2.7-5.2c-.6-1.1-1-2.4-1-3.6V7.4c0-1.6 1.2-3 2.9-3h1.5c1.6.1 2.8 1.5 2.7 3v1.8c0 .3-.2.5-.4.6l-1.9.5V7.7c0-.7-.5-1.2-1.2-1.2S118 7 118 7.7v2.2c.1 1.1.4 2.1 1 3z"/><linearGradient id="prefix__a" x1="-1916.392" x2="-1915.391" y1="2541.385" y2="2541.385" gradientTransform="matrix(31.992 0 0 32 61309.203 -81308.32)" gradientUnits="userSpaceOnUse"><stop offset="0" stop-color="#00bfff"/><stop offset="1" stop-color="#6619ff"/></linearGradient><path fill="url(#prefix__a)" d="m22.4 16 9.6 9.6h-3.4c-.6 0-1.1-.2-1.5-.6l-8.9-9 8.9-8.9c.4-.4 1-.6 1.5-.6H32L22.4 16zM4.9 7.1c-.4-.4-1-.6-1.5-.6H0L9.6 16 0 25.6h3.4c.6 0 1.1-.2 1.5-.6l8.9-8.9c0-.1-8.9-9-8.9-9zM16 18.2l-8.9 8.9c-.4.4-.6 1-.6 1.5V32l9.6-9.6 9.6 9.6v-3.4c0-.6-.2-1.1-.6-1.5L16 18.2zm0-4.4 8.9-8.9c.4-.4.6-1 .6-1.5V0L16 9.6 6.4 0v3.4c0 .6.2 1.1.6 1.5l9 8.9z"/></svg>
